<svg width="56" height="56" viewBox="0 0 56 56" fill="none" xmlns="http://www.w3.org/2000/svg">
<rect width="56" height="56" fill="#F2F2F2"/>
<g clip-path="url(#clip0_0_1)">
<rect width="1440" height="1845" transform="translate(-957 -1239)" fill="white"/>
<rect x="-957" y="-402" width="1440" height="888" fill="url(#paint0_linear_0_1)"/>
<g filter="url(#filter0_d_0_1)">
<rect x="-32" y="-378" width="350" height="322" rx="15" fill="white"/>
</g>
<g filter="url(#filter1_d_0_1)">
<rect x="-32" y="24" width="350" height="322" rx="15" fill="white"/>
</g>
<circle cx="28" cy="28" r="28" fill="url(#paint1_linear_0_1)"/>
<path fill-rule="evenodd" clip-rule="evenodd" d="M35 22H33C33 19.24 30.76 17 28 17C25.24 17 23 19.24 23 22H21C19.9 22 19.01 22.9 19.01 24L19 36C19 37.1 19.9 38 21 38H35C36.1 38 37 37.1 37 36V24C37 22.9 36.1 22 35 22ZM28 19C29.66 19 31 20.34 31 22H25C25 20.34 26.34 19 28 19ZM28 29C25.24 29 23 26.76 23 24H25C25 25.66 26.34 27 28 27C29.66 27 31 25.66 31 24H33C33 26.76 30.76 29 28 29Z" fill="white"/>
<mask id="mask0_0_1" style="mask-type:luminance" maskUnits="userSpaceOnUse" x="19" y="17" width="18" height="21">
<path fill-rule="evenodd" clip-rule="evenodd" d="M35 22H33C33 19.24 30.76 17 28 17C25.24 17 23 19.24 23 22H21C19.9 22 19.01 22.9 19.01 24L19 36C19 37.1 19.9 38 21 38H35C36.1 38 37 37.1 37 36V24C37 22.9 36.1 22 35 22ZM28 19C29.66 19 31 20.34 31 22H25C25 20.34 26.34 19 28 19ZM28 29C25.24 29 23 26.76 23 24H25C25 25.66 26.34 27 28 27C29.66 27 31 25.66 31 24H33C33 26.76 30.76 29 28 29Z" fill="white"/>
</mask>
<g mask="url(#mask0_0_1)">
</g>
</g>
<defs>
<filter id="filter0_d_0_1" x="-82" y="-403" width="450" height="422" filterUnits="userSpaceOnUse" color-interpolation-filters="sRGB">
<feFlood flood-opacity="0" result="BackgroundImageFix"/>
<feColorMatrix in="SourceAlpha" type="matrix" values="0 0 0 0 0 0 0 0 0 0 0 0 0 0 0 0 0 0 127 0" result="hardAlpha"/>
<feOffset dy="25"/>
<feGaussianBlur stdDeviation="25"/>
<feColorMatrix type="matrix" values="0 0 0 0 0.0235294 0 0 0 0 0.0862745 0 0 0 0 0.552941 0 0 0 0.0442381 0"/>
<feBlend mode="normal" in2="BackgroundImageFix" result="effect1_dropShadow_0_1"/>
<feBlend mode="normal" in="SourceGraphic" in2="effect1_dropShadow_0_1" result="shape"/>
</filter>
<filter id="filter1_d_0_1" x="-82" y="-1" width="450" height="422" filterUnits="userSpaceOnUse" color-interpolation-filters="sRGB">
<feFlood flood-opacity="0" result="BackgroundImageFix"/>
<feColorMatrix in="SourceAlpha" type="matrix" values="0 0 0 0 0 0 0 0 0 0 0 0 0 0 0 0 0 0 127 0" result="hardAlpha"/>
<feOffset dy="25"/>
<feGaussianBlur stdDeviation="25"/>
<feColorMatrix type="matrix" values="0 0 0 0 0.0235294 0 0 0 0 0.0862745 0 0 0 0 0.552941 0 0 0 0.0442381 0"/>
<feBlend mode="normal" in2="BackgroundImageFix" result="effect1_dropShadow_0_1"/>
<feBlend mode="normal" in="SourceGraphic" in2="effect1_dropShadow_0_1" result="shape"/>
</filter>
<linearGradient id="paint0_linear_0_1" x1="-957" y1="-402" x2="-957" y2="486" gradientUnits="userSpaceOnUse">
<stop stop-color="white"/>
<stop offset="1" stop-color="#F0F1FF"/>
</linearGradient>
<linearGradient id="paint1_linear_0_1" x1="0" y1="0" x2="0" y2="56" gradientUnits="userSpaceOnUse">
<stop stop-color="#FF6F48"/>
<stop offset="1" stop-color="#F02AA6"/>
</linearGradient>
<clipPath id="clip0_0_1">
<rect width="1440" height="1845" fill="white" transform="translate(-957 -1239)"/>
</clipPath>
</defs>
</svg>
